#!OML:ASF F:\VICON\USERDATA\INSTALL\rory3\rory3.ASF
:FULLY-SPECIFIED
:DEGREES
321
root -0.805353 17.3588 -2.01085 370.287 -31.7272 -354.495
lowerback 15.1823 -2.10124 2.2914
upperback 8.44712 -2.59674 6.54165
thorax 0.696909 -1.47355 5.99164
lowerneck -11.0927 -1.66785 -11.5375
upperneck 36.6764 0.682404 -2.07593
head 14.6239 -1.67925 1.24037
rclavicle -5.725e-014 6.52014e-014
rhumerus -47.5521 2.78668 -82.3007
rradius 43.1893
rwrist -9.78153
rhand -26.0098 14.3991
rfingers 7.12502
rthumb 0.536279 -15.58
lclavicle -5.725e-014 6.52014e-014
lhumerus -30.0847 -4.52767 89.203
lradius 58.2575
lwrist 6.82076
lhand -23.987 21.9533
lfingers 7.12502
lthumb 2.48995 51.9185
rfemur -49.222 -16.7436 12.1087
rtibia 54.4124
rfoot -3.75196 -8.91479
rtoes 13.3448
lfemur -53.6763 1.74678 -18.2386
ltibia 52.7302
lfoot 26.3485 -19.2969
ltoes -12.2549
322
root -0.783831 17.3193 -2.05324 369.909 -31.7322 -354.438
lowerback 15.3915 -2.12291 2.2551
upperback 8.56827 -2.62898 6.52407
thorax 0.720598 -1.49405 6.00652
lowerneck -11.1705 -1.6626 -11.5083
upperneck 36.6258 0.679081 -2.03016
head 14.6156 -1.66884 1.25395
rclavicle -8.90555e-014 4.13472e-014
rhumerus -47.665 3.07312 -82.109
rradius 43.8893
rwrist -11.4544
rhand -23.7175 14.4005
rfingers 7.12502
rthumb 2.7502 -15.5615
lclavicle -8.90555e-014 4.13472e-014
lhumerus -29.9441 -4.52683 88.9951
lradius 58.0385
lwrist 7.01558
lhand -23.8287 21.7337
lfingers 7.12502
lthumb 2.64277 51.6971
rfemur -49.5572 -16.6864 11.9658
rtibia 55.2934
rfoot -3.44433 -8.98838
rtoes 12.5113
lfemur -53.8093 1.9842 -18.4017
ltibia 53.2342
lfoot 26.6415 -18.9973
ltoes -10.7139
323
root -0.761203 17.2673 -2.10873 369.722 -31.5759 -354.392
lowerback 15.57 -2.17625 2.1824
upperback 8.58111 -2.69727 6.49613
thorax 0.648499 -1.52978 6.03696
lowerneck -11.2612 -1.62532 -11.3097
upperneck 36.5951 0.691747 -2.01607
head 14.6151 -1.63433 1.22778
rclavicle -4.29375e-014 6.20208e-014
rhumerus -47.408 3.23207 -81.9636
rradius 43.7601
rwrist -12.8061
rhand -21.4536 14.7961
rfingers 7.12502
rthumb 4.93636 -15.1264
lclavicle -4.29375e-014 6.20208e-014
lhumerus -29.8379 -4.56547 88.676
lradius 57.8658
lwrist 7.21529
lhand -23.9742 21.5782
lfingers 7.12502
lthumb 2.50224 51.5433
rfemur -50.1575 -16.7437 11.9117
rtibia 56.1892
rfoot -3.08731 -9.16461
rtoes 11.6126
lfemur -54.2258 2.14625 -18.5069
ltibia 53.7572
lfoot 27.2813 -18.1635
ltoes -7.35723
324
root -0.740379 17.2179 -2.1596 369.357 -31.5676 -354.259
lowerback 15.7855 -2.13096 2.00167
upperback 8.63556 -2.65342 6.43689
thorax 0.594171 -1.51342 6.08001
lowerneck -11.2547 -1.65196 -11.2737
upperneck 36.5793 0.589662 -1.86272
head 14.6064 -1.65136 1.27005
rclavicle 2.54444e-014 2.54444e-014
rhumerus -46.8955 3.33075 -81.7915
rradius 43.0215
rwrist -13.7145
rhand -19.5268 15.321
rfingers 7.12502
rthumb 6.79666 -14.5499
lclavicle 2.54444e-014 2.54444e-014
lhumerus -29.7329 -4.59042 88.4148
lradius 57.6906
lwrist 7.16526
lhand -24.1276 21.4358
lfingers 7.12502
lthumb 2.35413 51.4026
rfemur -50.6111 -16.7169 11.7389
rtibia 57.0809
rfoot -2.65699 -9.22226
rtoes 10.7884
lfemur -54.4572 2.36677 -18.7212
ltibia 54.2896
lfoot 27.7003 -17.9008
ltoes -6.04515
325
root -0.720925 17.1818 -2.19727 368.92 -31.8211 -354.139
lowerback 15.8371 -2.06205 1.814
upperback 8.77451 -2.59967 6.33568
thorax 0.713379 -1.49485 6.06944
lowerneck -11.1474 -1.62563 -11.3659
upperneck 36.4792 0.569683 -1.68242
head 14.5322 -1.64316 1.35847
rclavicle -2.38542e-014 7.79236e-014
rhumerus -46.7057 3.5511 -81.5619
rradius 43.0132
rwrist -14.4661
rhand -17.295 15.6213
rfingers 7.12502
rthumb 8.95071 -14.1688
lclavicle -2.38542e-014 7.79236e-014
lhumerus -29.6546 -4.42742 88.1122
lradius 57.4909
lwrist 7.04474
lhand -23.9911 21.2749
lfingers 7.12502
lthumb 2.48595 51.2401
rfemur -50.9418 -16.5399 11.5305
rtibia 57.9092
rfoot -2.28902 -9.21047
rtoes 10.5713
lfemur -54.5906 2.81659 -19.0563
ltibia 54.8246
lfoot 27.7672 -18.3171
ltoes -7.02023
326
root -0.696814 17.1311 -2.25336 368.863 -31.7011 -354.205
lowerback 15.8197 -2.1195 1.72956
upperback 8.77159 -2.6862 6.35317
thorax 0.732758 -1.542 6.14871
lowerneck -11.1243 -1.54366 -11.3194
upperneck 36.4147 0.663858 -1.6598
head 14.4886 -1.59156 1.37439
rclavicle -2.22639e-014 -9.54166e-015
rhumerus -46.6324 3.6661 -81.2599
rradius 43.4331
rwrist -14.9722
rhand -14.7848 15.6069
rfingers 7.12502
rthumb 11.3723 -14.0647
lclavicle -2.22639e-014 -9.54166e-015
lhumerus -29.5554 -4.16936 87.7824
lradius 57.3517
lwrist 7.11231
lhand -23.7533 21.1147
lfingers 7.12502
lthumb 2.71566 51.0772
rfemur -51.6178 -16.62 11.6221
rtibia 58.7341
rfoot -1.95803 -9.4076
rtoes 10.1503
lfemur -55.2257 3.07975 -19.1901
ltibia 55.3741
lfoot 28.26 -18.4036
ltoes -6.70651
